<?xml version="1.0" encoding="utf-8"?>
<!-- Generator: Adobe Illustrator 26.4.1, SVG Export Plug-In . SVG Version: 6.00 Build 0)  -->
<svg version="1.1" id="Capa_1" xmlns="http://www.w3.org/2000/svg" xmlns:xlink="http://www.w3.org/1999/xlink" x="0px" y="0px"
	 viewBox="0 0 70.1 70.1" style="enable-background:new 0 0 70.1 70.1;" xml:space="preserve">
<style type="text/css">
	.st0{font-family:'Arial-Black';}
	.st1{font-size:14.7737px;}
</style>
<path d="M67.7,14.7v-4.2H2.4v4.2H0v44.9h70.1V14.7C70.1,14.7,67.7,14.7,67.7,14.7z M4.7,14.7v-1.8h29.1v1.8v40.8H4.7V14.7z
	 M41.5,14.7v12.5l3.7-2.6l3.8,2.6V14.7v-1.8h16.3v1.8v40.8H36.2V14.7v-1.8h5.3L41.5,14.7L41.5,14.7z M7.8,42.4h22.9v2.3H7.8V42.4z
	 M7.6,48.7h22.9V51H7.6V48.7z M30.5,20.7h-12v-2.3h12V20.7z M30.5,26.7h-12v-2.3h12V26.7z M30.5,32.6H8v-2.3h22.5
	C30.5,30.3,30.5,32.6,30.5,32.6z M30.5,38.6H8v-2.3h22.5C30.5,36.3,30.5,38.6,30.5,38.6z"/>
<text transform="matrix(0.8539 0 0 1 37.5039 42.8214)" class="st0 st1">SLU</text>
</svg>
