<?xml version="1.0" encoding="utf-8"?>
<!-- Generator: Adobe Illustrator 26.4.1, SVG Export Plug-In . SVG Version: 6.00 Build 0)  -->
<svg version="1.1" id="Capa_1" xmlns="http://www.w3.org/2000/svg" xmlns:xlink="http://www.w3.org/1999/xlink" x="0px" y="0px"
	 viewBox="0 0 70.1 70.1" style="enable-background:new 0 0 70.1 70.1;" xml:space="preserve">
<style type="text/css">
	.st0{enable-background:new    ;}
</style>
<path d="M67.7,14.7v-4.2H2.4v4.2H0v44.9h70.1V14.7H67.7z M4.7,14.7v-1.8h29.1v1.8v40.8H4.7V14.7z M41.5,14.7v12.5l3.7-2.6l3.8,2.6
	V14.7v-1.8h16.3v1.8v40.8H36.2V14.7v-1.8h5.3V14.7L41.5,14.7z M7.8,42.4h22.9v2.3H7.8V42.4z M7.6,48.7h22.9V51H7.6V48.7z M30.5,20.7
	h-12v-2.3h12V20.7z M30.5,26.7h-12v-2.3h12V26.7z M30.5,32.6H8v-2.3h22.5V32.6z M30.5,38.6H8v-2.3h22.5V38.6z"/>
<g class="st0">
	<path d="M37.6,39.3l2.7-0.2c0.1,0.5,0.2,0.9,0.4,1.2c0.3,0.4,0.7,0.6,1.2,0.6c0.4,0,0.7-0.1,0.9-0.3c0.2-0.2,0.3-0.5,0.3-0.8
		c0-0.3-0.1-0.5-0.3-0.7c-0.2-0.2-0.7-0.4-1.4-0.6c-1.2-0.3-2.1-0.8-2.6-1.3c-0.5-0.5-0.8-1.2-0.8-2c0-0.5,0.1-1.1,0.4-1.5
		s0.7-0.9,1.2-1.1c0.5-0.3,1.3-0.4,2.2-0.4c1.2,0,2,0.3,2.6,0.8c0.6,0.5,1,1.3,1.1,2.4l-2.6,0.2c-0.1-0.5-0.2-0.8-0.4-1
		c-0.2-0.2-0.5-0.3-0.9-0.3c-0.3,0-0.6,0.1-0.7,0.2s-0.2,0.4-0.2,0.6c0,0.2,0.1,0.3,0.2,0.5c0.1,0.1,0.4,0.3,0.9,0.4
		c1.2,0.3,2.1,0.6,2.6,0.9c0.5,0.3,0.9,0.7,1.2,1.2c0.2,0.5,0.4,1,0.4,1.6c0,0.7-0.2,1.3-0.5,1.9s-0.8,1-1.3,1.3
		c-0.6,0.3-1.3,0.4-2.2,0.4c-1.5,0-2.6-0.3-3.2-1S37.7,40.4,37.6,39.3z"/>
	<path d="M47.2,32.2H50v8h4.4v2.6h-7.1V32.2z"/>
	<path d="M61.1,32.2h2.8v6.3c0,0.6-0.1,1.2-0.2,1.8s-0.4,1-0.8,1.5c-0.4,0.4-0.7,0.7-1.1,0.9c-0.5,0.2-1.2,0.4-2,0.4
		c-0.4,0-0.9,0-1.4-0.1s-1-0.2-1.3-0.4c-0.3-0.2-0.7-0.5-1-0.9s-0.5-0.8-0.6-1.2c-0.2-0.7-0.3-1.3-0.3-1.8v-6.3h2.8v6.5
		c0,0.6,0.1,1,0.4,1.4s0.7,0.5,1.1,0.5c0.5,0,0.9-0.2,1.1-0.5c0.3-0.3,0.4-0.8,0.4-1.4V32.2z"/>
</g>
</svg>
