<svg xmlns="http://www.w3.org/2000/svg" xmlns:xlink="http://www.w3.org/1999/xlink" version="1.1" x="0px" y="0px" viewBox="0 0 66 66" style="enable-background:new 0 0 66 66;" xml:space="preserve"><path d="M55.44,9.73c0-2.2-1.79-3.99-3.99-3.99h-2.36v3.23c0,0.55-0.45,1-1,1s-1-0.45-1-1V5.73V2.5c0-0.55-0.45-1-1-1s-1,0.45-1,1  v3.23h-2.93v3.23c0,0.55-0.45,1-1,1s-1-0.45-1-1V5.73V2.5c0-0.55-0.45-1-1-1s-1,0.45-1,1v3.23h-2.93v3.23c0,0.55-0.45,1-1,1  s-1-0.45-1-1V5.73V2.5c0-0.55-0.45-1-1-1s-1,0.45-1,1v3.23h-2.93v3.23c0,0.55-0.45,1-1,1s-1-0.45-1-1V5.73V2.5c0-0.55-0.45-1-1-1  s-1,0.45-1,1v3.23h-2.93v3.23c0,0.55-0.45,1-1,1s-1-0.45-1-1V5.73V2.5c0-0.55-0.45-1-1-1s-1,0.45-1,1v3.23h-2.93v3.23  c0,0.55-0.45,1-1,1s-1-0.45-1-1V5.73V2.5c0-0.55-0.45-1-1-1s-1,0.45-1,1v3.23H6.06c-2.2,0-3.99,1.79-3.99,3.99v3.99h53.38V9.73z"></path><polygon points="30.5,25.49 44.55,29.81 58.61,25.49 44.55,21.17 "></polygon><path d="M62.32,61.27H30.25c-1.86,0-3.33-1.7-2.93-3.63c0.29-1.4,1.59-2.37,3.02-2.37h31.99c0.89,0,1.61-0.72,1.61-1.61  c0-0.89-0.72-1.61-1.61-1.61H30.46c-3.31,0-6.21,2.49-6.43,5.8c-0.24,3.62,2.64,6.65,6.21,6.65h32.07c0.89,0,1.61-0.72,1.61-1.61  C63.93,62,63.21,61.27,62.32,61.27z"></path><path d="M31.48,37.61c-0.89,0-1.61,0.72-1.61,1.61c0,0.89,0.72,1.61,1.61,1.61h26.23c1.86,0,3.33,1.7,2.93,3.63  c-0.29,1.4-1.59,2.37-3.02,2.37H31.48c-0.89,0-1.61,0.72-1.61,1.61c0,0.89,0.72,1.61,1.61,1.61h26.01c3.31,0,6.21-2.49,6.43-5.8  c0.24-3.62-2.64-6.65-6.21-6.65H31.48z"></path><path d="M57.61,27.89v2c-0.5,0.33-0.84,0.89-0.84,1.54c0,1.01,0.82,1.84,1.84,1.84c1.01,0,1.84-0.82,1.84-1.84  c0-0.64-0.33-1.21-0.84-1.54v-2.61L57.61,27.89z"></path><path d="M30.33,57.28c-0.51,0-0.97,0.33-1.06,0.77c-0.08,0.4,0.06,0.69,0.2,0.86c0.19,0.23,0.47,0.37,0.77,0.37h30.22  c-0.1-0.66-0.1-1.33,0-1.99H30.33z"></path><polygon points="44.55,31.91 35.03,28.98 35.03,35.61 54.08,35.61 54.08,28.98 "></polygon><path d="M28.4,50.31c-0.37-0.61-0.58-1.33-0.53-2.11c0.13-1.94,1.88-3.37,3.82-3.37h25.93c0.51,0,0.97-0.33,1.06-0.77  c0.08-0.4-0.06-0.69-0.2-0.86c-0.19-0.23-0.47-0.37-0.77-0.37H31.58c-1.72,0-3.29-1.17-3.64-2.85c-0.48-2.32,1.3-4.37,3.54-4.37  h1.56v-7.25l-6.23-1.92c-0.94-0.29-0.94-1.62,0-1.91l17.75-5.46l10.89,3.35v-6.71H2.07v36.81c0,2.2,1.79,3.99,3.99,3.99h16.16  C22.9,53.47,25.33,51.07,28.4,50.31z M19.53,32.62h6.99v6.99h-6.99V32.62z M15.04,50.53H8.06v-6.99h6.99V50.53z M15.04,39.61H8.06  v-6.99h6.99V39.61z M15.04,28.69H8.06V21.7h6.99V28.69z M19.53,50.53v-6.99h6.99v6.99H19.53z"></path></svg>