<?xml version="1.0" encoding="iso-8859-1"?>
<!-- Generator: Adobe Illustrator 19.0.0, SVG Export Plug-In . SVG Version: 6.00 Build 0)  -->
<svg version="1.1" id="Layer_1" xmlns="http://www.w3.org/2000/svg" xmlns:xlink="http://www.w3.org/1999/xlink" x="0px" y="0px"
	 viewBox="0 0 512 512" style="enable-background:new 0 0 512 512;" xml:space="preserve">
<g>
	<g>
		<path d="M458.602,100.972h-12.897V79.554c0-5.632-4.567-10.199-10.199-10.199s-10.199,4.567-10.199,10.199v21.418H86.693V79.554
			c0-5.632-4.567-10.199-10.199-10.199s-10.199,4.567-10.199,10.199v21.418H53.398C23.954,100.972,0,124.926,0,154.37v234.877
			c0,29.444,23.954,53.398,53.398,53.398h405.203c29.445,0,53.399-23.954,53.399-53.398V154.37
			C512,124.926,488.046,100.972,458.602,100.972z M491.602,389.247c0,18.195-14.804,33-33,33H53.398c-18.195,0-33-14.804-33-33
			V180.526h471.203V389.247z M491.602,160.127H20.398v-5.757c0-18.195,14.804-33,33-33h12.897v13.259
			c0,5.632,4.567,10.199,10.199,10.199s10.199-4.567,10.199-10.199v-13.259h338.614v13.259c0,5.632,4.567,10.199,10.199,10.199
			s10.199-4.567,10.199-10.199v-13.259h12.897c18.195,0,33,14.804,33,33V160.127z"/>
	</g>
</g>
<g>
	<g>
		<path d="M63.235,207.044h-7.139c-5.632,0-10.199,4.567-10.199,10.199s4.567,10.199,10.199,10.199h7.139
			c5.632,0,10.199-4.567,10.199-10.199S68.867,207.044,63.235,207.044z"/>
	</g>
</g>
<g>
	<g>
		<path d="M119.331,207.044h-7.139c-5.632,0-10.199,4.567-10.199,10.199s4.567,10.199,10.199,10.199h7.139
			c5.632,0,10.199-4.567,10.199-10.199S124.963,207.044,119.331,207.044z"/>
	</g>
</g>
<g>
	<g>
		<path d="M175.426,207.044h-7.139c-5.632,0-10.199,4.567-10.199,10.199s4.567,10.199,10.199,10.199h7.139
			c5.632,0,10.199-4.567,10.199-10.199S181.058,207.044,175.426,207.044z"/>
	</g>
</g>
<g>
	<g>
		<path d="M231.522,207.044h-7.139c-5.632,0-10.199,4.567-10.199,10.199s4.567,10.199,10.199,10.199h7.139
			c5.632,0,10.199-4.567,10.199-10.199S237.154,207.044,231.522,207.044z"/>
	</g>
</g>
<g>
	<g>
		<path d="M287.618,207.044h-7.139c-5.632,0-10.199,4.567-10.199,10.199s4.567,10.199,10.199,10.199h7.139
			c5.632,0,10.199-4.567,10.199-10.199S293.25,207.044,287.618,207.044z"/>
	</g>
</g>
<g>
	<g>
		<path d="M343.713,207.044h-7.139c-5.632,0-10.199,4.567-10.199,10.199s4.567,10.199,10.199,10.199h7.139
			c5.632,0,10.199-4.567,10.199-10.199S349.345,207.044,343.713,207.044z"/>
	</g>
</g>
<g>
	<g>
		<path d="M399.809,207.044h-7.139c-5.632,0-10.199,4.567-10.199,10.199s4.567,10.199,10.199,10.199h7.139
			c5.632,0,10.199-4.567,10.199-10.199S405.441,207.044,399.809,207.044z"/>
	</g>
</g>
<g>
	<g>
		<path d="M455.904,207.044h-7.139c-5.632,0-10.199,4.567-10.199,10.199s4.567,10.199,10.199,10.199h7.139
			c5.632,0,10.199-4.567,10.199-10.199S461.536,207.044,455.904,207.044z"/>
	</g>
</g>
<g>
	<g>
		<path d="M63.235,261.439h-7.139c-5.632,0-10.199,4.567-10.199,10.199c0,5.632,4.567,10.199,10.199,10.199h7.139
			c5.632,0,10.199-4.567,10.199-10.199C73.434,266.006,68.867,261.439,63.235,261.439z"/>
	</g>
</g>
<g>
	<g>
		<path d="M119.331,261.439h-7.139c-5.632,0-10.199,4.567-10.199,10.199c0,5.632,4.567,10.199,10.199,10.199h7.139
			c5.632,0,10.199-4.567,10.199-10.199C129.53,266.006,124.963,261.439,119.331,261.439z"/>
	</g>
</g>
<g>
	<g>
		<path d="M175.426,261.439h-7.139c-5.632,0-10.199,4.567-10.199,10.199c0,5.632,4.567,10.199,10.199,10.199h7.139
			c5.632,0,10.199-4.567,10.199-10.199C185.625,266.006,181.058,261.439,175.426,261.439z"/>
	</g>
</g>
<g>
	<g>
		<path d="M231.522,261.439h-7.139c-5.632,0-10.199,4.567-10.199,10.199c0,5.632,4.567,10.199,10.199,10.199h7.139
			c5.632,0,10.199-4.567,10.199-10.199C241.721,266.006,237.154,261.439,231.522,261.439z"/>
	</g>
</g>
<g>
	<g>
		<path d="M287.618,261.439h-7.139c-5.632,0-10.199,4.567-10.199,10.199c0,5.632,4.567,10.199,10.199,10.199h7.139
			c5.632,0,10.199-4.567,10.199-10.199C297.817,266.006,293.25,261.439,287.618,261.439z"/>
	</g>
</g>
<g>
	<g>
		<path d="M343.713,261.439h-7.139c-5.632,0-10.199,4.567-10.199,10.199c0,5.632,4.567,10.199,10.199,10.199h7.139
			c5.632,0,10.199-4.567,10.199-10.199C353.912,266.006,349.345,261.439,343.713,261.439z"/>
	</g>
</g>
<g>
	<g>
		<path d="M399.809,261.439h-7.139c-5.632,0-10.199,4.567-10.199,10.199c0,5.632,4.567,10.199,10.199,10.199h7.139
			c5.632,0,10.199-4.567,10.199-10.199C410.008,266.006,405.441,261.439,399.809,261.439z"/>
	</g>
</g>
<g>
	<g>
		<path d="M455.904,261.439h-7.139c-5.632,0-10.199,4.567-10.199,10.199c0,5.632,4.567,10.199,10.199,10.199h7.139
			c5.632,0,10.199-4.567,10.199-10.199C466.104,266.006,461.536,261.439,455.904,261.439z"/>
	</g>
</g>
<g>
	<g>
		<path d="M63.235,316.727h-7.139c-5.632,0-10.199,4.567-10.199,10.199s4.567,10.199,10.199,10.199h7.139
			c5.632,0,10.199-4.567,10.199-10.199S68.867,316.727,63.235,316.727z"/>
	</g>
</g>
<g>
	<g>
		<path d="M119.331,316.727h-7.139c-5.632,0-10.199,4.567-10.199,10.199s4.567,10.199,10.199,10.199h7.139
			c5.632,0,10.199-4.567,10.199-10.199S124.963,316.727,119.331,316.727z"/>
	</g>
</g>
<g>
	<g>
		<path d="M175.426,316.727h-7.139c-5.632,0-10.199,4.567-10.199,10.199s4.567,10.199,10.199,10.199h7.139
			c5.632,0,10.199-4.567,10.199-10.199S181.058,316.727,175.426,316.727z"/>
	</g>
</g>
<g>
	<g>
		<path d="M231.522,316.727h-7.139c-5.632,0-10.199,4.567-10.199,10.199s4.567,10.199,10.199,10.199h7.139
			c5.632,0,10.199-4.567,10.199-10.199S237.154,316.727,231.522,316.727z"/>
	</g>
</g>
<g>
	<g>
		<path d="M287.618,316.727h-7.139c-5.632,0-10.199,4.567-10.199,10.199s4.567,10.199,10.199,10.199h7.139
			c5.632,0,10.199-4.567,10.199-10.199S293.25,316.727,287.618,316.727z"/>
	</g>
</g>
<g>
	<g>
		<path d="M343.713,316.727h-7.139c-5.632,0-10.199,4.567-10.199,10.199s4.567,10.199,10.199,10.199h7.139
			c5.632,0,10.199-4.567,10.199-10.199S349.345,316.727,343.713,316.727z"/>
	</g>
</g>
<g>
	<g>
		<path d="M399.809,316.727h-7.139c-5.632,0-10.199,4.567-10.199,10.199s4.567,10.199,10.199,10.199h7.139
			c5.632,0,10.199-4.567,10.199-10.199S405.441,316.727,399.809,316.727z"/>
	</g>
</g>
<g>
	<g>
		<path d="M455.904,316.727h-7.139c-5.632,0-10.199,4.567-10.199,10.199s4.567,10.199,10.199,10.199h7.139
			c5.632,0,10.199-4.567,10.199-10.199S461.536,316.727,455.904,316.727z"/>
	</g>
</g>
<g>
	<g>
		<path d="M63.235,371.122h-7.139c-5.632,0-10.199,4.567-10.199,10.199c0,5.632,4.567,10.199,10.199,10.199h7.139
			c5.632,0,10.199-4.567,10.199-10.199C73.434,375.69,68.867,371.122,63.235,371.122z"/>
	</g>
</g>
<g>
	<g>
		<path d="M119.331,371.122h-7.139c-5.632,0-10.199,4.567-10.199,10.199c0,5.632,4.567,10.199,10.199,10.199h7.139
			c5.632,0,10.199-4.567,10.199-10.199C129.53,375.69,124.963,371.122,119.331,371.122z"/>
	</g>
</g>
<g>
	<g>
		<path d="M175.426,371.122h-7.139c-5.632,0-10.199,4.567-10.199,10.199c0,5.632,4.567,10.199,10.199,10.199h7.139
			c5.632,0,10.199-4.567,10.199-10.199C185.625,375.69,181.058,371.122,175.426,371.122z"/>
	</g>
</g>
<g>
	<g>
		<path d="M231.522,371.122h-7.139c-5.632,0-10.199,4.567-10.199,10.199c0,5.632,4.567,10.199,10.199,10.199h7.139
			c5.632,0,10.199-4.567,10.199-10.199C241.721,375.69,237.154,371.122,231.522,371.122z"/>
	</g>
</g>
<g>
	<g>
		<path d="M287.618,371.122h-7.139c-5.632,0-10.199,4.567-10.199,10.199c0,5.632,4.567,10.199,10.199,10.199h7.139
			c5.632,0,10.199-4.567,10.199-10.199C297.817,375.69,293.25,371.122,287.618,371.122z"/>
	</g>
</g>
<g>
	<g>
		<path d="M343.713,371.122h-7.139c-5.632,0-10.199,4.567-10.199,10.199c0,5.632,4.567,10.199,10.199,10.199h7.139
			c5.632,0,10.199-4.567,10.199-10.199C353.912,375.69,349.345,371.122,343.713,371.122z"/>
	</g>
</g>
<g>
	<g>
		<path d="M399.809,371.122h-7.139c-5.632,0-10.199,4.567-10.199,10.199c0,5.632,4.567,10.199,10.199,10.199h7.139
			c5.632,0,10.199-4.567,10.199-10.199C410.008,375.69,405.441,371.122,399.809,371.122z"/>
	</g>
</g>
<g>
	<g>
		<path d="M455.904,371.122h-7.139c-5.632,0-10.199,4.567-10.199,10.199c0,5.632,4.567,10.199,10.199,10.199h7.139
			c5.632,0,10.199-4.567,10.199-10.199C466.104,375.69,461.536,371.122,455.904,371.122z"/>
	</g>
</g>
<g>
</g>
<g>
</g>
<g>
</g>
<g>
</g>
<g>
</g>
<g>
</g>
<g>
</g>
<g>
</g>
<g>
</g>
<g>
</g>
<g>
</g>
<g>
</g>
<g>
</g>
<g>
</g>
<g>
</g>
</svg>
