<?xml version="1.0" encoding="iso-8859-1"?>
<!-- Generator: Adobe Illustrator 19.0.0, SVG Export Plug-In . SVG Version: 6.00 Build 0)  -->
<svg version="1.1" id="Layer_1" xmlns="http://www.w3.org/2000/svg" xmlns:xlink="http://www.w3.org/1999/xlink" x="0px" y="0px"
	 viewBox="0 0 512 512" style="enable-background:new 0 0 512 512;" xml:space="preserve">
<g>
	<g>
		<g>
			<path d="M512,140.066c0-22.011-17.907-39.918-39.918-39.918h-86.196V76.033c0-9.857-7.991-17.847-17.847-17.847
				s-17.847,7.991-17.847,17.847v24.116H149.902V76.033c0-9.857-7.991-17.847-17.847-17.847c-9.857,0-17.847,7.991-17.847,17.847
				v24.116H39.918C17.907,100.149,0,118.056,0,140.066c0,11.29,0,261.382,0,273.83c0,22.011,17.907,39.918,39.918,39.918h432.165
				c22.011,0,39.918-17.907,39.918-39.918C512,401.449,512,151.366,512,140.066z M476.305,413.897c0,2.328-1.894,4.223-4.223,4.223
				H39.918c-2.328,0-4.223-1.894-4.223-4.223V203.225h440.61V413.897z"/>
			<path d="M107.249,304.722c24.061,0,43.635-19.574,43.635-43.635c0-24.061-19.574-43.635-43.635-43.635
				c-24.061,0-43.635,19.574-43.635,43.635C63.614,285.148,83.188,304.722,107.249,304.722z M107.249,253.149
				c4.379,0,7.94,3.562,7.94,7.94s-3.561,7.94-7.94,7.94c-4.379,0-7.94-3.562-7.94-7.94S102.87,253.149,107.249,253.149z"/>
			<path d="M206.416,304.722c24.061,0,43.635-19.574,43.635-43.635c0-24.061-19.574-43.635-43.635-43.635
				c-24.061,0-43.635,19.574-43.635,43.635C162.782,285.148,182.356,304.722,206.416,304.722z M206.416,253.149
				c4.379,0,7.94,3.562,7.94,7.94s-3.561,7.94-7.94,7.94c-4.379,0-7.94-3.562-7.94-7.94S202.038,253.149,206.416,253.149z"/>
			<path d="M305.583,304.722c24.061,0,43.635-19.574,43.635-43.635c0-24.061-19.574-43.635-43.635-43.635
				c-24.061,0-43.635,19.574-43.635,43.635C261.949,285.148,281.522,304.722,305.583,304.722z"/>
			<path d="M404.751,304.722c24.061,0,43.635-19.574,43.635-43.635c0-24.061-19.574-43.635-43.635-43.635
				s-43.635,19.574-43.635,43.635C361.116,285.148,380.69,304.722,404.751,304.722z M404.751,253.149c4.379,0,7.94,3.562,7.94,7.94
				s-3.561,7.94-7.94,7.94c-4.379,0-7.94-3.562-7.94-7.94S400.372,253.149,404.751,253.149z"/>
			<path d="M107.249,403.89c24.061,0,43.635-19.574,43.635-43.635s-19.574-43.635-43.635-43.635
				c-24.061,0-43.635,19.574-43.635,43.635S83.188,403.89,107.249,403.89z M107.249,352.316c4.379,0,7.94,3.562,7.94,7.94
				c0,4.377-3.561,7.94-7.94,7.94c-4.379,0-7.94-3.562-7.94-7.94C99.309,355.878,102.87,352.316,107.249,352.316z"/>
			<path d="M206.416,403.89c24.061,0,43.635-19.574,43.635-43.635s-19.574-43.635-43.635-43.635
				c-24.061,0-43.635,19.574-43.635,43.635C162.782,384.316,182.356,403.89,206.416,403.89z"/>
			<path d="M305.583,403.89c24.061,0,43.635-19.574,43.635-43.635s-19.574-43.635-43.635-43.635
				c-24.061,0-43.635,19.574-43.635,43.635S281.522,403.89,305.583,403.89z M305.583,352.316c4.379,0,7.94,3.562,7.94,7.94
				c0,4.377-3.561,7.94-7.94,7.94c-4.379,0-7.94-3.562-7.94-7.94C297.644,355.878,301.205,352.316,305.583,352.316z"/>
			<path d="M404.751,403.89c24.061,0,43.635-19.574,43.635-43.635s-19.574-43.635-43.635-43.635s-43.635,19.574-43.635,43.635
				S380.69,403.89,404.751,403.89z M404.751,352.316c4.379,0,7.94,3.562,7.94,7.94c0,4.377-3.561,7.94-7.94,7.94
				c-4.379,0-7.94-3.562-7.94-7.94C396.811,355.878,400.372,352.316,404.751,352.316z"/>
		</g>
	</g>
</g>
<g>
</g>
<g>
</g>
<g>
</g>
<g>
</g>
<g>
</g>
<g>
</g>
<g>
</g>
<g>
</g>
<g>
</g>
<g>
</g>
<g>
</g>
<g>
</g>
<g>
</g>
<g>
</g>
<g>
</g>
</svg>
