<?xml version="1.0" encoding="iso-8859-1"?>
<!-- Generator: Adobe Illustrator 19.1.0, SVG Export Plug-In . SVG Version: 6.00 Build 0)  -->
<svg version="1.1" id="Capa_1" xmlns="http://www.w3.org/2000/svg" xmlns:xlink="http://www.w3.org/1999/xlink" x="0px" y="0px"
	 viewBox="0 0 465.978 465.978" style="enable-background:new 0 0 465.978 465.978;" xml:space="preserve">
<g>
	<g>
		<g>
			<path style="fill:#010002;" d="M321.145,231.201c0,6.468-37.469,11.753-83.701,11.753c-46.213,0-83.652-5.286-83.652-11.753
				c0-6.487,37.439-11.744,83.652-11.744C283.696,219.457,321.145,224.714,321.145,231.201z M237.454,154.906
				c-73.618,0-91.693,27.171-91.693,27.171v6.302c6.204-6.653,28.509-24.093,91.693-24.093s85.528,17.44,91.732,24.083v-6.282
				C329.186,182.077,311.082,154.906,237.454,154.906z M413.62,0v361.291H299.983l-66.994,104.687l-66.965-104.687H52.358V0H413.62z
				 M369.547,232.872c-10.571,4.103-14.714,0-14.714,0l-3.4,46.223c9.926-15.408,18.114-9.604,18.114-9.604V232.872z
				 M364.554,215.491v-29.897l28.812-15.916L237.454,86.417L81.571,169.678l62.158,36.111v22.921l0.576-0.244
				c-0.684,0.909-1.104,1.788-1.104,2.736c0,10.444,42.168,18.944,94.263,18.944s94.321-8.51,94.321-18.944
				c0-0.948-0.459-1.827-1.085-2.736l0.547,0.244V205.73l27.102-16.678v26.438c-2.96,1.202-5.041,4.152-5.041,7.552
				c0,4.494,3.644,8.148,8.148,8.148c4.524,0,8.148-3.644,8.148-8.148C369.605,219.643,367.544,216.692,364.554,215.491z"/>
		</g>
	</g>
</g>
<g>
</g>
<g>
</g>
<g>
</g>
<g>
</g>
<g>
</g>
<g>
</g>
<g>
</g>
<g>
</g>
<g>
</g>
<g>
</g>
<g>
</g>
<g>
</g>
<g>
</g>
<g>
</g>
<g>
</g>
</svg>
