<?xml version="1.0" encoding="utf-8"?>
<!-- Generator: Adobe Illustrator 26.4.1, SVG Export Plug-In . SVG Version: 6.00 Build 0)  -->
<svg version="1.1" id="Capa_1" xmlns="http://www.w3.org/2000/svg" xmlns:xlink="http://www.w3.org/1999/xlink" x="0px" y="0px"
	 viewBox="0 0 466 466" style="enable-background:new 0 0 466 466;" xml:space="preserve">
<style type="text/css">
	.st0{fill:#003A5D;}
</style>
<g>
	<g>
		<g>
			<path class="st0" d="M321.1,231.2c0,6.5-37.5,11.8-83.7,11.8c-46.2,0-83.7-5.3-83.7-11.8c0-6.5,37.4-11.7,83.7-11.7
				C283.7,219.5,321.1,224.7,321.1,231.2z M237.5,154.9c-73.6,0-91.7,27.2-91.7,27.2v6.3c6.2-6.7,28.5-24.1,91.7-24.1
				s85.5,17.4,91.7,24.1v-6.3C329.2,182.1,311.1,154.9,237.5,154.9z M413.6,0v361.3H300L233,466l-67-104.7H52.4V0H413.6z
				 M369.5,232.9c-10.6,4.1-14.7,0-14.7,0l-3.4,46.2c9.9-15.4,18.1-9.6,18.1-9.6L369.5,232.9L369.5,232.9z M364.6,215.5v-29.9
				l28.8-15.9L237.5,86.4L81.6,169.7l62.2,36.1v22.9l0.6-0.2c-0.7,0.9-1.1,1.8-1.1,2.7c0,10.4,42.2,18.9,94.3,18.9
				s94.3-8.5,94.3-18.9c0-0.9-0.5-1.8-1.1-2.7l0.5,0.2v-23l27.1-16.7v26.4c-3,1.2-5,4.2-5,7.6c0,4.5,3.6,8.1,8.1,8.1
				c4.5,0,8.1-3.6,8.1-8.1C369.6,219.6,367.5,216.7,364.6,215.5z"/>
		</g>
	</g>
</g>
</svg>
