<svg xmlns="http://www.w3.org/2000/svg" viewBox="0 0 1373.25 1373.25">
    <defs>
        <style>
            .cls-1{fill:#fa423b;}.cls-2{fill:#fff;}
        </style>
    </defs>
    <title>
        Handshake Logomark Light
    </title>
    <g id="Light_Icon_HSRed" data-name="Light_Icon_HSRed">
        <rect width="1373.25" height="1373.25" class="cls-1" rx="315.23"/>
        <path d="M345.48,825.84q0-107,0-213.9a118.7,118.7,0,0,1,.73-13.33c2.38-21,13.23-33.09,34-37.85,26.61-6.12,53.54-5.44,80.56-3.94,25.19,1.41,49.59,5.81,71.37,19.17,17.86,11,35.3,22.62,52.53,34.54,36.28,25.13,75,44,119.59,48.54,34.7,3.54,69,.62,103.11-6.25,25.92-5.24,51.67-11.56,77.78-15.56a263.43,263.43,0,0,1,101.48,4.3c8.5,2,16.83,5.88,24.45,10.25,11,6.32,15.89,17,17,29.45.16,1.82.14,3.66.14,5.5q-.12,177.72-.32,355.45c-.08,38.87-27.83,66.14-66.72,66.19q-61.74.07-123.47-.21c-38.21-.19-65.81-28-66.18-66.17-.56-57.66-1-115.31-1.88-173-.33-22-.46-44.09-2.77-65.91-4.64-43.93-36.24-77.23-79.46-86.44-23.88-5.09-47.38-3.92-70.78,2.36-10.14,2.72-11.67,4.76-11.77,15.44q-.8,87.66-1.57,175.33c-.41,43-2,86-1,128.92.9,38.26-28.35,68.68-61.89,68.67-46.11,0-92.27,1.16-138.3-.78-33.08-1.4-56.89-29.61-56.95-63-.13-67.11.06-134.22.11-201.32,0-5.51,0-11,0-16.52Z" class="cls-2"/>
        <path d="M473.84,523.17c-71.22-.12-128.82-58-128.78-129.34A129.06,129.06,0,0,1,475,264.83c71.1.24,128.62,58.34,128.43,129.72C603.21,465.71,545.21,523.3,473.84,523.17Z" class="cls-2"/>
        <path d="M1025,460.43c-.12,71.12-58.12,128.86-129.39,128.82-71.54,0-129.19-58.13-128.95-129.94.24-71.1,58.32-128.61,129.68-128.4C967.51,331.12,1025.15,389.15,1025,460.43Z" class="cls-2"/>
    </g>
</svg>
