<?xml version="1.0" encoding="utf-8"?>
<!-- Generator: Adobe Illustrator 26.4.1, SVG Export Plug-In . SVG Version: 6.00 Build 0)  -->
<svg version="1.1" id="Layer_1" xmlns="http://www.w3.org/2000/svg" xmlns:xlink="http://www.w3.org/1999/xlink" x="0px" y="0px"
	 viewBox="0 0 1920 551" style="enable-background:new 0 0 1920 551;" xml:space="preserve">
<g id="XMLID_237_">
	<path id="XMLID_240_" d="M212.1,380.5c116.1,116.1,243.7,176.7,285,135.3L76.7,95.4C35.4,136.8,96,264.4,212.1,380.5z"/>
	<path id="XMLID_239_" d="M258.8,173.3c9.7-9.7,9.7-25.4,0-35l-95.8-95.8c-9.7-9.7-25.4-9.7-35,0L95.4,75.2L226.1,206L258.8,173.3z"
		/>
	<path id="XMLID_238_" d="M549,428.9l-95.7-95.7c-4.6-4.6-11-7.3-17.5-7.3c-6.6,0-12.9,2.6-17.5,7.3l-32.7,32.7l130.8,130.8
		l32.7-32.7C558.6,454.2,558.6,438.6,549,428.9z"/>
</g>
<g id="XMLID_115_">
	<g id="XMLID_116_">
		<path id="XMLID_117_" d="M1066,485.4c3.4,10.9-2.3,22.5-13,26.5c-35.3,13.2-68.5,17.8-111.5,17.8c-118.2,0-222.1-84.7-222.1-224.3
			c0-145.2,105.4-271.3,266.3-271.3c125.3,0,215,86.2,215,205.8c0,103.9-58.4,169.4-135.3,169.4c-33.5,0-57.7-17.1-61.2-54.8h-1.4
			c-22.1,36.3-54.1,54.8-91.9,54.8c-46.3,0-79.8-34.2-79.8-92.6c0-86.8,64.1-165.9,166.6-165.9c17.1,0,35.4,2.3,51.5,6.1
			c19.1,4.4,31.4,22.9,28.3,42.2l-16.4,101.2c-7.1,42-2.2,61.3,17.8,61.9c30.6,0.7,69.1-38.4,69.1-120.3
			c0-92.6-59.8-164.5-170.2-164.5c-108.9,0-204.4,85.5-204.4,221.4c0,118.9,76.2,186.6,182.3,186.6c28.2,0,57.7-4.7,82.8-13.9
			c5.4-2,11.4-1.6,16.6,0.9C1060.3,475.3,1064.2,479.9,1066,485.4L1066,485.4z M1008.4,210.1c-5.7-1.4-12.8-2.8-22.1-2.8
			c-47,0-84,46.3-84,101.1c0,27.1,12.1,44.1,35.6,44.1c26.3,0,54.1-33.4,60.5-74.8L1008.4,210.1z"/>
	</g>
</g>
<g id="XMLID_176_">
	<path id="XMLID_179_" d="M1498.1,92.8l-128.5,54.1c-3.7,1.6-6.1,5.2-6.1,9.2v303.2c0,3.4,1.7,6.5,4.5,8.3c2.8,1.9,6.3,2.2,9.4,0.9
		l128.5-54.2c3.7-1.6,6.1-5.2,6.1-9.2V102c0-3.4-1.7-6.5-4.5-8.3C1504.7,91.8,1501.2,91.5,1498.1,92.8z"/>
	<path id="XMLID_178_" d="M1677.3,131.6L1548.8,91c-3-1-6.4-0.4-8.9,1.5c-2.6,1.9-4.1,4.9-4.1,8.1v304c0,4.4,2.8,8.2,7,9.6
		l128.5,40.6c3,1,6.4,0.4,8.9-1.5c2.6-1.9,4.1-4.9,4.1-8.1V141.2C1684.3,136.8,1681.4,133,1677.3,131.6z"/>
	<path id="XMLID_177_" d="M1852.5,92.5c-2.6-1.9-5.9-2.4-8.9-1.5L1715,131.6c-4.2,1.3-7,5.2-7,9.6v303.9c0,3.2,1.5,6.2,4.1,8.1
		c2.6,1.9,5.9,2.4,8.9,1.5l128.5-40.6c4.2-1.3,7-5.2,7-9.6v-304C1856.6,97.4,1855.1,94.4,1852.5,92.5z"/>
</g>
</svg>
