<?xml version="1.0" encoding="iso-8859-1"?>
<!-- Generator: Adobe Illustrator 16.0.0, SVG Export Plug-In . SVG Version: 6.00 Build 0)  -->
<!DOCTYPE svg PUBLIC "-//W3C//DTD SVG 1.1//EN" "http://www.w3.org/Graphics/SVG/1.1/DTD/svg11.dtd">
<svg version="1.1" id="Capa_1" xmlns="http://www.w3.org/2000/svg" xmlns:xlink="http://www.w3.org/1999/xlink" x="0px" y="0px"
	 width="404.943px" height="404.943px" viewBox="0 0 404.943 404.943" style="enable-background:new 0 0 404.943 404.943;"
	 xml:space="preserve">
<g>
	<g>
		<path d="M391.691,18.284H13.25C5.932,18.284,0,24.219,0,31.536v242.48c0,7.32,5.932,13.252,13.25,13.252h202.674v86.137
			c0,5.359,3.229,10.193,8.182,12.244c1.639,0.68,3.359,1.01,5.066,1.01c3.446,0,6.838-1.348,9.372-3.883l96.173-95.508h56.975
			c7.32,0,13.252-5.932,13.252-13.252V31.535C404.943,24.218,399.012,18.284,391.691,18.284z M230.973,231.571
			c0,10.201-8.299,18.5-18.5,18.5c-10.202,0-18.5-8.299-18.5-18.5v-87.467h-19.385c-8.836,0-16-7.164-16-16s7.164-16,16-16h37.229
			c0.219-0.008,0.434-0.033,0.654-0.033c10.201,0,18.5,8.299,18.5,18.5v101H230.973z M210.201,101.586
			c-11.226,0-20.357-9.132-20.357-20.358c0-11.225,9.132-20.357,20.357-20.357c11.225,0,20.357,9.132,20.357,20.357
			C230.559,92.454,221.426,101.586,210.201,101.586z"/>
	</g>
</g>
<g>
</g>
<g>
</g>
<g>
</g>
<g>
</g>
<g>
</g>
<g>
</g>
<g>
</g>
<g>
</g>
<g>
</g>
<g>
</g>
<g>
</g>
<g>
</g>
<g>
</g>
<g>
</g>
<g>
</g>
</svg>
