<?xml version="1.0" encoding="utf-8"?>
<!-- Generator: Adobe Illustrator 26.4.1, SVG Export Plug-In . SVG Version: 6.00 Build 0)  -->
<svg version="1.1" id="Layer_1" xmlns="http://www.w3.org/2000/svg" xmlns:xlink="http://www.w3.org/1999/xlink" x="0px" y="0px"
	 viewBox="0 0 368.9 365" style="enable-background:new 0 0 368.9 365;" xml:space="preserve">
<style type="text/css">
	.st0{fill:#FA3D33;}
</style>
<g id="Layer_2_00000183235405823539353530000006303425189778435484_">
	<g id="Layer_1-2">
		<path class="st0" d="M17.8,1.4C10.4,4.1,6,7.8,2.8,14.2c-2,4.3-2.8,7.2-2.7,11.3c0,11.5-4.4,6.5,86.3,97.3
			c76.3,76.5,84.1,83.9,88.9,85.7c6.7,2.5,11.7,2.5,18.4,0c4.8-1.8,12.6-9.2,88.9-85.7c90.7-90.8,86.3-85.8,86.3-97.3
			c0.1-7.4-4.1-16-9.7-20.1c-7.7-5.8-17.9-7.1-26.7-3.2c-2.3,0.9-27.6,25.4-75.7,73.6L184.5,148l-72.2-72.2
			C63.5,27,38.8,3.1,36.4,2.1C30.5-0.4,23.9-0.7,17.8,1.4z"/>
		<path class="st0" d="M17,156.1c-14.4,5.4-21.3,22.9-14.1,36.1c3.8,7.1,164.1,167.2,170.6,170.5c3.3,1.6,6.9,2.4,10.5,2.4
			c11.9,0.2,8.7,2.9,98.7-87.1c57.7-57.9,82.3-83.1,83.9-86.3c4.9-9.8,1.9-23.7-6.8-30.9c-7.5-6.2-19.2-7.7-27.4-3.6
			c-1.9,0.9-35.9,34.2-75.6,73.8l-72.3,72.2l-72.2-72.2c-39.8-39.6-73.9-72.9-75.8-73.8C31.9,154.6,22,154.2,17,156.1z"/>
	</g>
</g>
</svg>
