<svg xmlns="http://www.w3.org/2000/svg" viewBox="0 0 368.93 364.99"><defs><style>.cls-1{fill:#fff;}</style></defs><g id="Layer_2" data-name="Layer 2"><g id="Layer_1-2" data-name="Layer 1"><path class="cls-1" d="M17.78,1.35c-7.4,2.7-11.8,6.4-15,12.9-2,4.3-2.8,7.2-2.7,11.3,0,11.5-4.4,6.5,86.3,97.3,76.3,76.5,84.1,83.9,88.9,85.7,6.7,2.5,11.7,2.5,18.4,0,4.8-1.8,12.6-9.2,88.9-85.7,90.7-90.8,86.3-85.8,86.3-97.3.1-7.4-4.1-16-9.7-20.1a26.52,26.52,0,0,0-26.7-3.2Q329,3.6,256.78,75.85l-72.3,72.2-72.2-72.2c-48.8-48.8-73.5-72.7-75.9-73.7A26.06,26.06,0,0,0,17.78,1.35Z"/><path class="cls-1" d="M17,156.05c-14.4,5.4-21.3,22.9-14.1,36.1,3.8,7.1,164.1,167.2,170.6,170.5A23.2,23.2,0,0,0,184,365c11.9.2,8.7,2.9,98.7-87.1,57.7-57.9,82.3-83.1,83.9-86.3,4.9-9.8,1.9-23.7-6.8-30.9-7.5-6.2-19.2-7.7-27.4-3.6-1.9.9-35.9,34.2-75.6,73.8l-72.3,72.2-72.2-72.2c-39.8-39.6-73.9-72.9-75.8-73.8C31.88,154.65,22,154.25,17,156.05Z"/></g></g></svg>